<?xml version="1.0" encoding="utf-8"?>
<!-- Generator: Circuit Diagram, cdlibrary.dll 1.0.0.0 -->
<!DOCTYPE svg PUBLIC "-//W3C//DTD SVG 1.1//EN" "http://www.w3.org/Graphics/SVG/1.1/DTD/svg11.dtd">
<svg version="1.1" width="780" height="740" xmlns="http://www.w3.org/2000/svg">
	<line x1="600" y1="710" x2="750" y2="710" style="stroke:rgb(0, 0, 0);stroke-linecap:square;stroke-width:2" />
	<line x1="700" y1="690" x2="750" y2="690" style="stroke:rgb(0, 0, 0);stroke-linecap:square;stroke-width:2" />
	<line x1="600" y1="650" x2="600" y2="710" style="stroke:rgb(0, 0, 0);stroke-linecap:square;stroke-width:2" />
	<line x1="660" y1="600" x2="660" y2="650" style="stroke:rgb(0, 0, 0);stroke-linecap:square;stroke-width:2" />
	<line x1="600" y1="650" x2="610" y2="650" style="stroke:rgb(0, 0, 0);stroke-linecap:square;stroke-width:2" />
	<line x1="650" y1="650" x2="660" y2="650" style="stroke:rgb(0, 0, 0);stroke-linecap:square;stroke-width:2" />
	<path d="M 610,650 L 612,650 L 615,643 L 621,657 L 627,643 L 633,657 L 639,643 L 645,657 L 648,650 L 650,650" style="fill-opacity:0;fill:rgb(0, 0, 0);stroke:rgb(0, 0, 0);stroke-linecap:square;stroke-width:2" />
	<text x="630" y="633" style="font-family:Arial;font-size:11px;text-anchor:middle" dy=".3em">R1</text>
	<line x1="750" y1="260" x2="750" y2="710" style="stroke:rgb(0, 0, 0);stroke-linecap:square;stroke-width:2" />
	<line x1="520" y1="260" x2="750" y2="260" style="stroke:rgb(0, 0, 0);stroke-linecap:square;stroke-width:2" />
	<line x1="520" y1="260" x2="520" y2="280" style="stroke:rgb(0, 0, 0);stroke-linecap:square;stroke-width:2" />
	<line x1="580" y1="600" x2="585" y2="600" style="stroke:rgb(0, 0, 0);stroke-linecap:square;stroke-width:2" />
	<path d="M 585,600 L 585,597 L 590,600 L 585,603 L 585,600" style="fill-opacity:1;fill:rgb(0, 0, 0);stroke:rgb(0, 0, 0);stroke-linecap:square;stroke-width:2" />
	<text x="585" y="588" style="font-family:Arial;font-size:11px;text-anchor:middle" dy=".3em">i1</text>
	<line x1="260" y1="540" x2="205" y2="540" style="stroke:rgb(0, 0, 0);stroke-linecap:square;stroke-width:2" />
	<path d="M 205,540 L 205,537 L 200,540 L 205,543 L 205,540" style="fill-opacity:1;fill:rgb(0, 0, 0);stroke:rgb(0, 0, 0);stroke-linecap:square;stroke-width:2" />
	<text x="230" y="528" style="font-family:Arial;font-size:11px;text-anchor:middle" dy=".3em">i1</text>
	<line x1="640" y1="600" x2="656" y2="600" style="stroke:rgb(0, 0, 0);stroke-linecap:square;stroke-width:2" />
	<line x1="684" y1="600" x2="700" y2="600" style="stroke:rgb(0, 0, 0);stroke-linecap:square;stroke-width:2" />
	<ellipse cx="659" cy="600" rx="3" ry="3" style="fill-opacity:0;fill:rgb(0, 0, 0);stroke:rgb(0, 0, 0);stroke-width:2" />
	<ellipse cx="681" cy="600" rx="3" ry="3" style="fill-opacity:0;fill:rgb(0, 0, 0);stroke:rgb(0, 0, 0);stroke-width:2" />
	<line x1="662" y1="598" x2="679" y2="592" style="stroke:rgb(0, 0, 0);stroke-linecap:square;stroke-width:2" />
	<line x1="700" y1="600" x2="700" y2="625" style="stroke:rgb(0, 0, 0);stroke-linecap:square;stroke-width:2" />
	<line x1="700" y1="665" x2="700" y2="690" style="stroke:rgb(0, 0, 0);stroke-linecap:square;stroke-width:2" />
	<line x1="700" y1="625" x2="700" y2="631" style="stroke:rgb(0, 0, 0);stroke-linecap:square;stroke-width:2" />
	<line x1="700" y1="631" x2="706" y2="631" style="stroke:rgb(0, 0, 0);stroke-linecap:square;stroke-width:2" />
	<line x1="700" y1="659" x2="700" y2="665" style="stroke:rgb(0, 0, 0);stroke-linecap:square;stroke-width:2" />
	<line x1="700" y1="659" x2="706" y2="659" style="stroke:rgb(0, 0, 0);stroke-linecap:square;stroke-width:2" />
	<path d="M 700,645 A 20,20 90 0 1 720,625 L 720,665 A 20,20 90 0 1 700,645" style="fill-opacity:0;fill:rgb(0, 0, 0);stroke:rgb(0, 0, 0);stroke-linecap:square;stroke-width:2" />
	<line x1="500" y1="600" x2="640" y2="600" style="stroke:rgb(0, 0, 0);stroke-linecap:square;stroke-width:2" />
	<line x1="590" y1="330" x2="590" y2="530" style="stroke:rgba(100, 149, 237, 255);stroke-linecap:square;stroke-width:2" />
	<line x1="500" y1="530" x2="590" y2="530" style="stroke:rgba(100, 149, 237, 255);stroke-linecap:square;stroke-width:2" />
	<line x1="500" y1="510" x2="570" y2="510" style="stroke:rgba(255, 0, 0, 255);stroke-linecap:square;stroke-width:2" />
	<line x1="570" y1="330" x2="570" y2="510" style="stroke:rgba(255, 0, 0, 255);stroke-linecap:square;stroke-width:2" />
	<line x1="580" y1="280" x2="580" y2="310" style="stroke:rgb(0, 0, 0);stroke-linecap:square;stroke-width:2" />
	<line x1="520" y1="280" x2="580" y2="280" style="stroke:rgb(0, 0, 0);stroke-linecap:square;stroke-width:2" />
	<line x1="520" y1="280" x2="520" y2="480" style="stroke:rgb(0, 0, 0);stroke-linecap:square;stroke-width:2" />
	<line x1="500" y1="480" x2="520" y2="480" style="stroke:rgb(0, 0, 0);stroke-linecap:square;stroke-width:2" />
	<line x1="580" y1="340" x2="580" y2="520" style="stroke:rgba(34, 139, 34, 255);stroke-linecap:square;stroke-width:2" />
	<line x1="500" y1="520" x2="580" y2="520" style="stroke:rgba(34, 139, 34, 255);stroke-linecap:square;stroke-width:2" />
	<line x1="580" y1="310" x2="580" y2="340" style="stroke:rgb(0, 0, 0);stroke-linecap:square;stroke-width:2" />
	<path d="M 580,332 M 572,332 L 588,332 M 580,332 L 588,317 L 572,317 L 580,332" style="fill-opacity:0;fill:rgb(0, 0, 0);stroke:rgb(0, 0, 0);stroke-linecap:square;stroke-width:2" />
	<line x1="589" y1="332" x2="589" y2="327" style="stroke:rgb(0, 0, 0);stroke-linecap:square;stroke-width:2" />
	<line x1="120" y1="70" x2="180" y2="70" style="stroke:rgb(0, 0, 0);stroke-linecap:square;stroke-width:2" />
	<line x1="120" y1="70" x2="120" y2="630" style="stroke:rgb(0, 0, 0);stroke-linecap:square;stroke-width:2" />
	<line x1="120" y1="630" x2="260" y2="630" style="stroke:rgb(0, 0, 0);stroke-linecap:square;stroke-width:2" />
	<line x1="140" y1="210" x2="180" y2="210" style="stroke:rgb(0, 0, 0);stroke-linecap:square;stroke-width:2" />
	<line x1="140" y1="210" x2="140" y2="590" style="stroke:rgb(0, 0, 0);stroke-linecap:square;stroke-width:2" />
	<line x1="140" y1="590" x2="260" y2="590" style="stroke:rgb(0, 0, 0);stroke-linecap:square;stroke-width:2" />
	<line x1="40" y1="280" x2="210" y2="280" style="stroke:rgb(0, 0, 0);stroke-linecap:square;stroke-width:2" />
	<line x1="210" y1="250" x2="240" y2="250" style="stroke:rgb(0, 0, 0);stroke-linecap:square;stroke-width:2" />
	<line x1="210" y1="110" x2="240" y2="110" style="stroke:rgb(0, 0, 0);stroke-linecap:square;stroke-width:2" />
	<line x1="210" y1="360" x2="240" y2="360" style="stroke:rgb(0, 0, 0);stroke-linecap:square;stroke-width:2" />
	<line x1="210" y1="140" x2="210" y2="160" style="stroke:rgb(0, 0, 0);stroke-linecap:square;stroke-width:2" />
	<line x1="40" y1="140" x2="210" y2="140" style="stroke:rgb(0, 0, 0);stroke-linecap:square;stroke-width:2" />
	<line x1="210" y1="20" x2="210" y2="50" style="stroke:rgb(0, 0, 0);stroke-linecap:square;stroke-width:2" />
	<line x1="40" y1="20" x2="210" y2="20" style="stroke:rgb(0, 0, 0);stroke-linecap:square;stroke-width:2" />
	<line x1="40" y1="20" x2="40" y2="80" style="stroke:rgb(0, 0, 0);stroke-linecap:square;stroke-width:2" />
	<line x1="210" y1="30" x2="210" y2="50" style="stroke:rgb(0, 0, 0);stroke-linecap:square;stroke-width:2" />
	<line x1="210" y1="90" x2="210" y2="110" style="stroke:rgb(0, 0, 0);stroke-linecap:square;stroke-width:2" />
	<rect x="202" y="50" width="16" height="40" style="fill-opacity:0;stroke:rgb(0, 0, 0);stroke-width:2" />
	<text x="224" y="70" style="font-family:Arial;font-size:11px;text-anchor:start" dy=".3em">R1</text>
	<path d="M 210,50 M 194,64 L 200,70 L 194,76 M 199,70 L 181,70" style="fill-opacity:0;fill:rgb(0, 0, 0);stroke:rgb(0, 0, 0);stroke-linecap:square;stroke-width:2" />
	<line x1="210" y1="160" x2="210" y2="190" style="stroke:rgb(0, 0, 0);stroke-linecap:square;stroke-width:2" />
	<line x1="210" y1="230" x2="210" y2="250" style="stroke:rgb(0, 0, 0);stroke-linecap:square;stroke-width:2" />
	<rect x="202" y="190" width="16" height="40" style="fill-opacity:0;stroke:rgb(0, 0, 0);stroke-width:2" />
	<text x="224" y="210" style="font-family:Arial;font-size:11px;text-anchor:start" dy=".3em">R1</text>
	<path d="M 210,190 M 194,204 L 200,210 L 194,216 M 199,210 L 181,210" style="fill-opacity:0;fill:rgb(0, 0, 0);stroke:rgb(0, 0, 0);stroke-linecap:square;stroke-width:2" />
	<line x1="160" y1="320" x2="190" y2="320" style="stroke:rgb(0, 0, 0);stroke-linecap:square;stroke-width:2" />
	<line x1="160" y1="320" x2="160" y2="580" style="stroke:rgb(0, 0, 0);stroke-linecap:square;stroke-width:2" />
	<line x1="160" y1="580" x2="260" y2="580" style="stroke:rgb(0, 0, 0);stroke-linecap:square;stroke-width:2" />
	<line x1="210" y1="280" x2="210" y2="300" style="stroke:rgb(0, 0, 0);stroke-linecap:square;stroke-width:2" />
	<line x1="210" y1="340" x2="210" y2="360" style="stroke:rgb(0, 0, 0);stroke-linecap:square;stroke-width:2" />
	<rect x="202" y="300" width="16" height="40" style="fill-opacity:0;stroke:rgb(0, 0, 0);stroke-width:2" />
	<text x="224" y="320" style="font-family:Arial;font-size:11px;text-anchor:start" dy=".3em">R1</text>
	<path d="M 210,300 M 194,314 L 200,320 L 194,326 M 199,320 L 181,320" style="fill-opacity:0;fill:rgb(0, 0, 0);stroke:rgb(0, 0, 0);stroke-linecap:square;stroke-width:2" />
	<line x1="240" y1="110" x2="240" y2="530" style="stroke:rgb(0, 0, 0);stroke-linecap:square;stroke-width:2" />
	<line x1="240" y1="530" x2="260" y2="530" style="stroke:rgb(0, 0, 0);stroke-linecap:square;stroke-width:2" />
	<line x1="40" y1="80" x2="40" y2="540" style="stroke:rgb(0, 0, 0);stroke-linecap:square;stroke-width:2" />
	<line x1="40" y1="540" x2="260" y2="540" style="stroke:rgb(0, 0, 0);stroke-linecap:square;stroke-width:2" />
	<rect x="320" y="445" width="120" height="195" style="fill-opacity:0;stroke:rgb(0, 0, 0);stroke-width:2" />
	<text x="356" y="475" style="font-family:Arial;font-size:11px;text-anchor:start" dy=".3em">ARDUINO</text>
	<text x="363" y="485" style="font-family:Arial;font-size:11px;text-anchor:start" dy=".3em">UNO r3</text>
	<line x1="260" y1="500" x2="320" y2="500" style="stroke:rgb(0, 0, 0);stroke-linecap:square;stroke-width:2" />
	<line x1="260" y1="510" x2="320" y2="510" style="stroke:rgb(0, 0, 0);stroke-linecap:square;stroke-width:2" />
	<line x1="260" y1="520" x2="320" y2="520" style="stroke:rgb(0, 0, 0);stroke-linecap:square;stroke-width:2" />
	<line x1="260" y1="530" x2="320" y2="530" style="stroke:rgb(0, 0, 0);stroke-linecap:square;stroke-width:2" />
	<line x1="260" y1="540" x2="320" y2="540" style="stroke:rgb(0, 0, 0);stroke-linecap:square;stroke-width:2" />
	<line x1="260" y1="550" x2="320" y2="550" style="stroke:rgb(0, 0, 0);stroke-linecap:square;stroke-width:2" />
	<line x1="260" y1="560" x2="320" y2="560" style="stroke:rgb(0, 0, 0);stroke-linecap:square;stroke-width:2" />
	<line x1="260" y1="580" x2="320" y2="580" style="stroke:rgb(0, 0, 0);stroke-linecap:square;stroke-width:2" />
	<line x1="260" y1="590" x2="320" y2="590" style="stroke:rgb(0, 0, 0);stroke-linecap:square;stroke-width:2" />
	<line x1="260" y1="600" x2="320" y2="600" style="stroke:rgb(0, 0, 0);stroke-linecap:square;stroke-width:2" />
	<line x1="260" y1="610" x2="320" y2="610" style="stroke:rgb(0, 0, 0);stroke-linecap:square;stroke-width:2" />
	<line x1="260" y1="620" x2="320" y2="620" style="stroke:rgb(0, 0, 0);stroke-linecap:square;stroke-width:2" />
	<line x1="260" y1="630" x2="320" y2="630" style="stroke:rgb(0, 0, 0);stroke-linecap:square;stroke-width:2" />
	<line x1="440" y1="470" x2="500" y2="470" style="stroke:rgb(0, 0, 0);stroke-linecap:square;stroke-width:2" />
	<line x1="440" y1="480" x2="500" y2="480" style="stroke:rgb(0, 0, 0);stroke-linecap:square;stroke-width:2" />
	<line x1="440" y1="490" x2="500" y2="490" style="stroke:rgb(0, 0, 0);stroke-linecap:square;stroke-width:2" />
	<line x1="440" y1="500" x2="500" y2="500" style="stroke:rgb(0, 0, 0);stroke-linecap:square;stroke-width:2" />
	<line x1="440" y1="510" x2="500" y2="510" style="stroke:rgb(0, 0, 0);stroke-linecap:square;stroke-width:2" />
	<line x1="440" y1="520" x2="500" y2="520" style="stroke:rgb(0, 0, 0);stroke-linecap:square;stroke-width:2" />
	<line x1="440" y1="530" x2="500" y2="530" style="stroke:rgb(0, 0, 0);stroke-linecap:square;stroke-width:2" />
	<line x1="440" y1="540" x2="500" y2="540" style="stroke:rgb(0, 0, 0);stroke-linecap:square;stroke-width:2" />
	<line x1="440" y1="560" x2="500" y2="560" style="stroke:rgb(0, 0, 0);stroke-linecap:square;stroke-width:2" />
	<line x1="440" y1="570" x2="500" y2="570" style="stroke:rgb(0, 0, 0);stroke-linecap:square;stroke-width:2" />
	<line x1="440" y1="580" x2="500" y2="580" style="stroke:rgb(0, 0, 0);stroke-linecap:square;stroke-width:2" />
	<line x1="440" y1="590" x2="500" y2="590" style="stroke:rgb(0, 0, 0);stroke-linecap:square;stroke-width:2" />
	<line x1="440" y1="600" x2="500" y2="600" style="stroke:rgb(0, 0, 0);stroke-linecap:square;stroke-width:2" />
	<line x1="440" y1="610" x2="500" y2="610" style="stroke:rgb(0, 0, 0);stroke-linecap:square;stroke-width:2" />
	<line x1="440" y1="620" x2="500" y2="620" style="stroke:rgb(0, 0, 0);stroke-linecap:square;stroke-width:2" />
	<line x1="440" y1="630" x2="500" y2="630" style="stroke:rgb(0, 0, 0);stroke-linecap:square;stroke-width:2" />
	<text x="324" y="500" style="font-family:Arial;font-size:11px;text-anchor:start" dy=".3em">IOREF</text>
	<text x="324" y="510" style="font-family:Arial;font-size:11px;text-anchor:start" dy=".3em">RESET</text>
	<text x="324" y="520" style="font-family:Arial;font-size:11px;text-anchor:start" dy=".3em">3.3V</text>
	<text x="324" y="530" style="font-family:Arial;font-size:11px;text-anchor:start" dy=".3em">5V</text>
	<text x="324" y="540" style="font-family:Arial;font-size:11px;text-anchor:start" dy=".3em">GND</text>
	<text x="324" y="550" style="font-family:Arial;font-size:11px;text-anchor:start" dy=".3em">GND</text>
	<text x="324" y="560" style="font-family:Arial;font-size:11px;text-anchor:start" dy=".3em">Vin</text>
	<text x="324" y="580" style="font-family:Arial;font-size:11px;text-anchor:start" dy=".3em">A0</text>
	<text x="324" y="590" style="font-family:Arial;font-size:11px;text-anchor:start" dy=".3em">A1</text>
	<text x="324" y="600" style="font-family:Arial;font-size:11px;text-anchor:start" dy=".3em">A2</text>
	<text x="324" y="610" style="font-family:Arial;font-size:11px;text-anchor:start" dy=".3em">A3</text>
	<text x="324" y="620" style="font-family:Arial;font-size:11px;text-anchor:start" dy=".3em">A4</text>
	<text x="324" y="630" style="font-family:Arial;font-size:11px;text-anchor:start" dy=".3em">A5</text>
	<text x="436" y="470" style="font-family:Arial;font-size:11px;text-anchor:end" dy=".3em">AREF</text>
	<text x="436" y="480" style="font-family:Arial;font-size:11px;text-anchor:end" dy=".3em">GND</text>
	<text x="436" y="490" style="font-family:Arial;font-size:11px;text-anchor:end" dy=".3em">D13</text>
	<text x="436" y="500" style="font-family:Arial;font-size:11px;text-anchor:end" dy=".3em">D12</text>
	<text x="436" y="510" style="font-family:Arial;font-size:11px;text-anchor:end" dy=".3em">PWM D11</text>
	<text x="436" y="520" style="font-family:Arial;font-size:11px;text-anchor:end" dy=".3em">PWM D10</text>
	<text x="436" y="530" style="font-family:Arial;font-size:11px;text-anchor:end" dy=".3em">PWM   D9</text>
	<text x="436" y="540" style="font-family:Arial;font-size:11px;text-anchor:end" dy=".3em">D8</text>
	<text x="436" y="560" style="font-family:Arial;font-size:11px;text-anchor:end" dy=".3em">D7</text>
	<text x="436" y="570" style="font-family:Arial;font-size:11px;text-anchor:end" dy=".3em">PWM   D6</text>
	<text x="436" y="580" style="font-family:Arial;font-size:11px;text-anchor:end" dy=".3em">PWM   D5</text>
	<text x="436" y="590" style="font-family:Arial;font-size:11px;text-anchor:end" dy=".3em">D4</text>
	<text x="436" y="600" style="font-family:Arial;font-size:11px;text-anchor:end" dy=".3em">PWM   D3</text>
	<text x="436" y="610" style="font-family:Arial;font-size:11px;text-anchor:end" dy=".3em">D2</text>
	<text x="436" y="620" style="font-family:Arial;font-size:11px;text-anchor:end" dy=".3em">TX   D1</text>
	<text x="436" y="630" style="font-family:Arial;font-size:11px;text-anchor:end" dy=".3em">RX   D0</text>
	<path d="M 380,460 M 380,460 c 2,9 15,9 15,0 c 0,-9 -13,-9 -15,0" style="fill-opacity:0;fill:rgb(0, 0, 0);stroke:rgb(0, 0, 0);stroke-linecap:square;stroke-width:2" />
	<path d="M 380,460 M 380,460 c -2,-9 -15,-9 -15,0 c 0,9 13,9 15,0" style="fill-opacity:0;fill:rgb(0, 0, 0);stroke:rgb(0, 0, 0);stroke-linecap:square;stroke-width:2" />
	<line x1="386" y1="460" x2="390" y2="460" style="stroke:rgb(0, 0, 0);stroke-linecap:square;stroke-width:2" />
	<line x1="388" y1="462" x2="388" y2="458" style="stroke:rgb(0, 0, 0);stroke-linecap:square;stroke-width:2" />
	<line x1="374" y1="460" x2="370" y2="460" style="stroke:rgb(0, 0, 0);stroke-linecap:square;stroke-width:2" />
	<ellipse cx="750" cy="690" rx="2" ry="2" style="fill-opacity:1;fill:rgb(0, 0, 0);stroke:rgb(0, 0, 0);stroke-width:2" />
	<ellipse cx="520" cy="280" rx="2" ry="2" style="fill-opacity:1;fill:rgb(0, 0, 0);stroke:rgb(0, 0, 0);stroke-width:2" />
	<ellipse cx="40" cy="280" rx="2" ry="2" style="fill-opacity:1;fill:rgb(0, 0, 0);stroke:rgb(0, 0, 0);stroke-width:2" />
	<ellipse cx="240" cy="250" rx="2" ry="2" style="fill-opacity:1;fill:rgb(0, 0, 0);stroke:rgb(0, 0, 0);stroke-width:2" />
	<ellipse cx="240" cy="360" rx="2" ry="2" style="fill-opacity:1;fill:rgb(0, 0, 0);stroke:rgb(0, 0, 0);stroke-width:2" />
	<ellipse cx="40" cy="140" rx="2" ry="2" style="fill-opacity:1;fill:rgb(0, 0, 0);stroke:rgb(0, 0, 0);stroke-width:2" />
</svg>